<svg xmlns="http://www.w3.org/2000/svg" viewBox="0 0 400 300">
  <defs>
    <linearGradient id="g-Desde $90" x1="0" y1="0" x2="1" y2="1">
      <stop offset="0%" stop-color="#2D2D2D"/>
      <stop offset="100%" stop-color="#EDE3C8"/>
    </linearGradient>
    <linearGradient id="badge-Desde $90" x1="0" y1="0" x2="1" y2="0">
      <stop offset="0%" stop-color="#D4A84B"/>
      <stop offset="100%" stop-color="#E84444"/>
    </linearGradient>
  </defs>

  <!-- Background -->
  <rect width="400" height="300" rx="16" fill="url(#g-Desde $90)"/>

  <!-- Subtle noise dots -->
  <g opacity="0.04" fill="#FDF6E3">
    <circle cx="12" cy="12" r="1.2"/>
    <circle cx="84" cy="12" r="1.2"/>
    <circle cx="156" cy="12" r="1.2"/>
    <circle cx="228" cy="12" r="1.2"/>
    <circle cx="300" cy="12" r="1.2"/>
    <circle cx="372" cy="12" r="1.2"/>
    <circle cx="12" cy="72" r="1.2"/>
    <circle cx="84" cy="72" r="1.2"/>
    <circle cx="156" cy="72" r="1.2"/>
    <circle cx="228" cy="72" r="1.2"/>
    <circle cx="300" cy="72" r="1.2"/>
    <circle cx="372" cy="72" r="1.2"/>
    <circle cx="12" cy="132" r="1.2"/>
    <circle cx="84" cy="132" r="1.2"/>
    <circle cx="156" cy="132" r="1.2"/>
    <circle cx="228" cy="132" r="1.2"/>
    <circle cx="300" cy="132" r="1.2"/>
    <circle cx="372" cy="132" r="1.2"/>
    <circle cx="12" cy="192" r="1.2"/>
    <circle cx="84" cy="192" r="1.2"/>
    <circle cx="156" cy="192" r="1.2"/>
    <circle cx="228" cy="192" r="1.2"/>
    <circle cx="300" cy="192" r="1.2"/>
    <circle cx="372" cy="192" r="1.2"/>
    <circle cx="12" cy="252" r="1.2"/>
    <circle cx="84" cy="252" r="1.2"/>
    <circle cx="156" cy="252" r="1.2"/>
    <circle cx="228" cy="252" r="1.2"/>
    <circle cx="300" cy="252" r="1.2"/>
    <circle cx="372" cy="252" r="1.2"/>
  </g>

  <!-- Decorative top-right shape -->
  <path d="M400 0C350 20 320 60 400 80Z" fill="#D4A84B" opacity="0.06"/>
  <path d="M400 0C370 10 350 40 400 50Z" fill="#D4A84B" opacity="0.08"/>

  <!-- Brand stamp bottom-right -->
  <text x="380" y="285" font-family="serif" font-size="10" fill="#D4A84B" opacity="0.15" text-anchor="end" font-style="italic">cdh</text>

  <!-- Icon -->
  <g transform="translate(200, 125)" text-anchor="middle">
    
    <g fill="none" stroke="#C41E3A" stroke-width="2.5" stroke-linecap="round" stroke-linejoin="round">
      <path d="M-55 20 Q-60 -5 -45 -25 Q-30 -40 -10 -35" fill="#D4A84B" opacity="0.3"/>
      <path d="M-50 25 Q-55 0 -40 -20 Q-25 -35 -5 -30" fill="none"/>
      <path d="M-45 -30 Q-30 -25 -15 -20 Q0 -15 10 -5" fill="none"/>
      <path d="M-40 -28 Q-25 -22 -10 -15 Q5 -8 15 5" fill="none"/>
      <path d="M-35 -25 Q-20 -18 -5 -10 Q10 -2 20 12" fill="none"/>
      <!-- Bone highlights -->
      <path d="M-30 -22 Q-15 -15 0 -8" stroke="#FFE44D" stroke-width="1.5" opacity="0.5"/>
      <path d="M-20 -15 Q-5 -8 10 2" stroke="#FFE44D" stroke-width="1.5" opacity="0.5"/>
      <!-- Sauce dots -->
      <circle cx="-30" cy="-10" r="2.5" fill="#C41E3A" stroke="none" opacity="0.3"/>
      <circle cx="-10" cy="0" r="2.5" fill="#C41E3A" stroke="none" opacity="0.3"/>
      <circle cx="10" cy="10" r="2" fill="#C41E3A" stroke="none" opacity="0.3"/>
    </g>
  
  </g>

  <!-- Title -->
  <text x="200" y="215" font-family="system-ui, sans-serif" font-size="16" font-weight="700" fill="#FDF6E3" text-anchor="middle" text-transform="uppercase" letter-spacing="1.5">
    Costillas
  </text>

  <!-- Decorative line -->
  <line x1="160" y1="228" x2="240" y2="228" stroke="#D4A84B" stroke-width="2" stroke-linecap="round" opacity="0.4"/>

  <!-- Price suggestion -->
  <text x="200" y="255" font-family="system-ui, sans-serif" font-size="12" fill="#888888" text-anchor="middle" letter-spacing="1">
    Desde $90
  </text>
</svg>