<svg xmlns="http://www.w3.org/2000/svg" viewBox="0 0 400 300">
  <defs>
    <linearGradient id="g-Hawaiana · $85" x1="0" y1="0" x2="1" y2="1">
      <stop offset="0%" stop-color="#F5ECD3"/>
      <stop offset="100%" stop-color="#EDE3C8"/>
    </linearGradient>
    <linearGradient id="badge-Hawaiana · $85" x1="0" y1="0" x2="1" y2="0">
      <stop offset="0%" stop-color="#C41E3A"/>
      <stop offset="100%" stop-color="#E84444"/>
    </linearGradient>
  </defs>

  <!-- Background -->
  <rect width="400" height="300" rx="16" fill="url(#g-Hawaiana · $85)"/>

  <!-- Subtle noise dots -->
  <g opacity="0.04" fill="#1A1A1A">
    <circle cx="12" cy="12" r="1.2"/>
    <circle cx="84" cy="12" r="1.2"/>
    <circle cx="156" cy="12" r="1.2"/>
    <circle cx="228" cy="12" r="1.2"/>
    <circle cx="300" cy="12" r="1.2"/>
    <circle cx="372" cy="12" r="1.2"/>
    <circle cx="12" cy="72" r="1.2"/>
    <circle cx="84" cy="72" r="1.2"/>
    <circle cx="156" cy="72" r="1.2"/>
    <circle cx="228" cy="72" r="1.2"/>
    <circle cx="300" cy="72" r="1.2"/>
    <circle cx="372" cy="72" r="1.2"/>
    <circle cx="12" cy="132" r="1.2"/>
    <circle cx="84" cy="132" r="1.2"/>
    <circle cx="156" cy="132" r="1.2"/>
    <circle cx="228" cy="132" r="1.2"/>
    <circle cx="300" cy="132" r="1.2"/>
    <circle cx="372" cy="132" r="1.2"/>
    <circle cx="12" cy="192" r="1.2"/>
    <circle cx="84" cy="192" r="1.2"/>
    <circle cx="156" cy="192" r="1.2"/>
    <circle cx="228" cy="192" r="1.2"/>
    <circle cx="300" cy="192" r="1.2"/>
    <circle cx="372" cy="192" r="1.2"/>
    <circle cx="12" cy="252" r="1.2"/>
    <circle cx="84" cy="252" r="1.2"/>
    <circle cx="156" cy="252" r="1.2"/>
    <circle cx="228" cy="252" r="1.2"/>
    <circle cx="300" cy="252" r="1.2"/>
    <circle cx="372" cy="252" r="1.2"/>
  </g>

  <!-- Decorative top-right shape -->
  <path d="M400 0C350 20 320 60 400 80Z" fill="#C41E3A" opacity="0.06"/>
  <path d="M400 0C370 10 350 40 400 50Z" fill="#C41E3A" opacity="0.08"/>

  <!-- Brand stamp bottom-right -->
  <text x="380" y="285" font-family="serif" font-size="10" fill="#C41E3A" opacity="0.15" text-anchor="end" font-style="italic">cdh</text>

  <!-- Icon -->
  <g transform="translate(200, 125)" text-anchor="middle">
    
    <g fill="none" stroke="#C41E3A" stroke-width="2.5" stroke-linecap="round" stroke-linejoin="round">
      <path d="M-60 30 Q-60 10 -40 5 Q0 -10 40 5 Q60 10 60 30Z" fill="#D4A84B" stroke="#C41E3A"/>
      <rect x="-50" y="10" width="100" height="12" rx="2" fill="#8B4513" stroke="none"/>
      <rect x="-55" y="14" width="110" height="6" rx="1" fill="#90EE50" stroke="none" opacity="0.8"/>
      <rect x="-50" y="22" width="100" height="8" rx="2" fill="#FFE44D" stroke="none"/>
      <path d="M-58 30 Q-58 42 -40 44 Q0 48 40 44 Q58 42 58 30Z" fill="#D4A84B" stroke="#C41E3A"/>
      <circle cx="-15" cy="13" r="2" fill="#C41E3A" stroke="none"/>
      <circle cx="10" cy="13" r="2" fill="#C41E3A" stroke="none"/>
      <circle cx="-5" cy="25" r="2" fill="#C41E3A" stroke="none"/>
    </g>
  
  </g>

  <!-- Title -->
  <text x="200" y="215" font-family="system-ui, sans-serif" font-size="16" font-weight="700" fill="#1A1A1A" text-anchor="middle" text-transform="uppercase" letter-spacing="1.5">
    Hamburguesa Hawaiana
  </text>

  <!-- Decorative line -->
  <line x1="160" y1="228" x2="240" y2="228" stroke="#C41E3A" stroke-width="2" stroke-linecap="round" opacity="0.4"/>

  <!-- Price suggestion -->
  <text x="200" y="255" font-family="system-ui, sans-serif" font-size="12" fill="#666666" text-anchor="middle" letter-spacing="1">
    Hawaiana · $85
  </text>
</svg>